<svg xmlns="http://www.w3.org/2000/svg" width="14.218" height="14.22" viewBox="0 0 14.218 14.22">
  <metadata><?xpacket begin="﻿" id="W5M0MpCehiHzreSzNTczkc9d"?>
<x:xmpmeta xmlns:x="adobe:ns:meta/" x:xmptk="Adobe XMP Core 5.6-c142 79.160924, 2017/07/13-01:06:39        ">
   <rdf:RDF xmlns:rdf="http://www.w3.org/1999/02/22-rdf-syntax-ns#">
      <rdf:Description rdf:about=""/>
   </rdf:RDF>
</x:xmpmeta>
                                                                                                    
                                                                                                    
                                                                                                    
                                                                                                    
                                                                                                    
                                                                                                    
                                                                                                    
                                                                                                    
                                                                                                    
                                                                                                    
                                                                                                    
                                                                                                    
                                                                                                    
                                                                                                    
                                                                                                    
                                                                                                    
                                                                                                    
                                                                                                    
                                                                                                    
                                                                                                    
                           
<?xpacket end="w"?></metadata>
<defs>
    <style>
      .cls-1 {
        fill: #1fdab5;
        fill-rule: evenodd;
      }
    </style>
  </defs>
  <path id="Forma_1" data-name="Forma 1" class="cls-1" d="M515.913,3314.73l-1.818-1.84a2.065,2.065,0,0,0-2.918-.01l-2.018,2.01a2.079,2.079,0,0,0-.008,2.93l1.152-1.13a1.08,1.08,0,0,1,.313-1.06l1.283-1.28a1.03,1.03,0,0,1,1.461.01l1.091,1.1a1.033,1.033,0,0,1,0,1.46l-1.284,1.28a1.2,1.2,0,0,1-1.063.33l-1.129,1.13a2.056,2.056,0,0,0,2.918.01l2.015-2.01A2.076,2.076,0,0,0,515.913,3314.73Zm-7.387,7.36a1.209,1.209,0,0,1-.335,1.09l-1.2,1.2a1.05,1.05,0,0,1-1.485-.01l-1.114-1.12a1.057,1.057,0,0,1,.005-1.49l1.2-1.2a1.069,1.069,0,0,1,1.079-.31l1.157-1.18a2.1,2.1,0,0,0-2.973-.01l-1.946,1.95a2.112,2.112,0,0,0-.009,2.98l1.852,1.87a2.1,2.1,0,0,0,2.973.01l1.945-1.94a2.113,2.113,0,0,0,.01-2.98Zm-1.264-.53a0.7,0.7,0,0,0,1,0l3.324-3.38a0.72,0.72,0,0,0,0-1.01,0.685,0.685,0,0,0-.994-0.01l-3.325,3.38A0.734,0.734,0,0,0,507.262,3321.56Z" transform="translate(-502.313 -3312.28)"/>
</svg>
