<svg xmlns="http://www.w3.org/2000/svg" width="16" height="16" viewBox="0 0 16 16">
  <metadata><?xpacket begin="﻿" id="W5M0MpCehiHzreSzNTczkc9d"?>
<x:xmpmeta xmlns:x="adobe:ns:meta/" x:xmptk="Adobe XMP Core 5.6-c142 79.160924, 2017/07/13-01:06:39        ">
   <rdf:RDF xmlns:rdf="http://www.w3.org/1999/02/22-rdf-syntax-ns#">
      <rdf:Description rdf:about=""/>
   </rdf:RDF>
</x:xmpmeta>
                                                                                                    
                                                                                                    
                                                                                                    
                                                                                                    
                                                                                                    
                                                                                                    
                                                                                                    
                                                                                                    
                                                                                                    
                                                                                                    
                                                                                                    
                                                                                                    
                                                                                                    
                                                                                                    
                                                                                                    
                                                                                                    
                                                                                                    
                                                                                                    
                                                                                                    
                                                                                                    
                           
<?xpacket end="w"?></metadata>
<defs>
    <style>
      .cls-1 {
        fill: #fff;
        fill-rule: evenodd;
      }
    </style>
  </defs>
  <path id="Forma_1" data-name="Forma 1" class="cls-1" d="M915.5,3972H910v-5.5a0.5,0.5,0,0,0-.5-0.5h-3a0.5,0.5,0,0,0-.5.5v5.5h-5.5a0.5,0.5,0,0,0-.5.5v3a0.5,0.5,0,0,0,.5.5H906v5.5a0.5,0.5,0,0,0,.5.5h3a0.5,0.5,0,0,0,.5-0.5V3976h5.5a0.5,0.5,0,0,0,.5-0.5v-3A0.5,0.5,0,0,0,915.5,3972Z" transform="translate(-900 -3966)"/>
</svg>
